<?xml version="1.0" encoding="UTF-8"?>
<svg xmlns="http://www.w3.org/2000/svg" xmlns:xlink="http://www.w3.org/1999/xlink" width="241.343pt" height="71.265pt" viewBox="0 0 241.343 71.265" version="1.1">
<defs>
<clipPath id="clip1">
  <path d="M 0 56 L 15 56 L 15 71.265625 L 0 71.265625 Z M 0 56 "/>
</clipPath>
<clipPath id="clip2">
  <path d="M 28 56 L 43 56 L 43 71.265625 L 28 71.265625 Z M 28 56 "/>
</clipPath>
<clipPath id="clip3">
  <path d="M 51 51 L 77 51 L 77 71.265625 L 51 71.265625 Z M 51 51 "/>
</clipPath>
<clipPath id="clip4">
  <path d="M 79 51 L 106 51 L 106 71.265625 L 79 71.265625 Z M 79 51 "/>
</clipPath>
<clipPath id="clip5">
  <path d="M 107 51 L 134 51 L 134 71.265625 L 107 71.265625 Z M 107 51 "/>
</clipPath>
<clipPath id="clip6">
  <path d="M 136 51 L 162 51 L 162 71.265625 L 136 71.265625 Z M 136 51 "/>
</clipPath>
<clipPath id="clip7">
  <path d="M 164 51 L 191 51 L 191 71.265625 L 164 71.265625 Z M 164 51 "/>
</clipPath>
<clipPath id="clip8">
  <path d="M 192 51 L 219 51 L 219 71.265625 L 192 71.265625 Z M 192 51 "/>
</clipPath>
<clipPath id="clip9">
  <path d="M 221 51 L 241.34375 51 L 241.34375 71.265625 L 221 71.265625 Z M 221 51 "/>
</clipPath>
<clipPath id="clip10">
  <path d="M 221 22 L 241.34375 22 L 241.34375 49 L 221 49 Z M 221 22 "/>
</clipPath>
<clipPath id="clip11">
  <path d="M 226 0 L 241.34375 0 L 241.34375 15 L 226 15 Z M 226 0 "/>
</clipPath>
</defs>
<g id="surface1">
<g clip-path="url(#clip1)" clip-rule="nonzero">
<path style=" stroke:none;fill-rule:nonzero;fill:rgb(100%,0%,0%);fill-opacity:1;" d="M 14.371094 63.980469 C 14.371094 60.066406 11.199219 56.890625 7.285156 56.890625 C 3.371094 56.890625 0.199219 60.066406 0.199219 63.980469 C 0.199219 67.894531 3.371094 71.066406 7.285156 71.066406 C 11.199219 71.066406 14.371094 67.894531 14.371094 63.980469 Z M 14.371094 63.980469 "/>
</g>
<g clip-path="url(#clip2)" clip-rule="nonzero">
<path style=" stroke:none;fill-rule:nonzero;fill:rgb(100%,0%,0%);fill-opacity:1;" d="M 42.71875 63.980469 C 42.71875 60.066406 39.546875 56.890625 35.632813 56.890625 C 31.71875 56.890625 28.546875 60.066406 28.546875 63.980469 C 28.546875 67.894531 31.71875 71.066406 35.632813 71.066406 C 39.546875 71.066406 42.71875 67.894531 42.71875 63.980469 Z M 42.71875 63.980469 "/>
</g>
<g clip-path="url(#clip3)" clip-rule="nonzero">
<path style="fill:none;stroke-width:0.3985;stroke-linecap:butt;stroke-linejoin:miter;stroke:rgb(0%,0%,0%);stroke-opacity:1;stroke-miterlimit:10;" d="M 63.780406 -0.00146875 C 63.780406 3.912594 60.608531 7.088375 56.694469 7.088375 C 52.780406 7.088375 49.608531 3.912594 49.608531 -0.00146875 C 49.608531 -3.915531 52.780406 -7.087406 56.694469 -7.087406 C 60.608531 -7.087406 63.780406 -3.915531 63.780406 -0.00146875 Z M 63.780406 -0.00146875 " transform="matrix(1,0,0,-1,7.286,63.979)"/>
</g>
<g clip-path="url(#clip4)" clip-rule="nonzero">
<path style="fill:none;stroke-width:0.3985;stroke-linecap:butt;stroke-linejoin:miter;stroke:rgb(0%,0%,0%);stroke-opacity:1;stroke-miterlimit:10;" d="M 92.128062 -0.00146875 C 92.128062 3.912594 88.956187 7.088375 85.042125 7.088375 C 81.128062 7.088375 77.952281 3.912594 77.952281 -0.00146875 C 77.952281 -3.915531 81.128062 -7.087406 85.042125 -7.087406 C 88.956187 -7.087406 92.128062 -3.915531 92.128062 -0.00146875 Z M 92.128062 -0.00146875 " transform="matrix(1,0,0,-1,7.286,63.979)"/>
</g>
<g clip-path="url(#clip5)" clip-rule="nonzero">
<path style="fill:none;stroke-width:0.3985;stroke-linecap:butt;stroke-linejoin:miter;stroke:rgb(0%,0%,0%);stroke-opacity:1;stroke-miterlimit:10;" d="M 120.475719 -0.00146875 C 120.475719 3.912594 117.299938 7.088375 113.385875 7.088375 C 109.471813 7.088375 106.299938 3.912594 106.299938 -0.00146875 C 106.299938 -3.915531 109.471813 -7.087406 113.385875 -7.087406 C 117.299938 -7.087406 120.475719 -3.915531 120.475719 -0.00146875 Z M 120.475719 -0.00146875 " transform="matrix(1,0,0,-1,7.286,63.979)"/>
</g>
<g clip-path="url(#clip6)" clip-rule="nonzero">
<path style="fill:none;stroke-width:0.3985;stroke-linecap:butt;stroke-linejoin:miter;stroke:rgb(0%,0%,0%);stroke-opacity:1;stroke-miterlimit:10;" d="M 148.819469 -0.00146875 C 148.819469 3.912594 145.647594 7.088375 141.733531 7.088375 C 137.819469 7.088375 134.647594 3.912594 134.647594 -0.00146875 C 134.647594 -3.915531 137.819469 -7.087406 141.733531 -7.087406 C 145.647594 -7.087406 148.819469 -3.915531 148.819469 -0.00146875 Z M 148.819469 -0.00146875 " transform="matrix(1,0,0,-1,7.286,63.979)"/>
</g>
<g clip-path="url(#clip7)" clip-rule="nonzero">
<path style="fill:none;stroke-width:0.3985;stroke-linecap:butt;stroke-linejoin:miter;stroke:rgb(0%,0%,0%);stroke-opacity:1;stroke-miterlimit:10;" d="M 177.167125 -0.00146875 C 177.167125 3.912594 173.99525 7.088375 170.081188 7.088375 C 166.167125 7.088375 162.99525 3.912594 162.99525 -0.00146875 C 162.99525 -3.915531 166.167125 -7.087406 170.081188 -7.087406 C 173.99525 -7.087406 177.167125 -3.915531 177.167125 -0.00146875 Z M 177.167125 -0.00146875 " transform="matrix(1,0,0,-1,7.286,63.979)"/>
</g>
<g clip-path="url(#clip8)" clip-rule="nonzero">
<path style="fill:none;stroke-width:0.3985;stroke-linecap:butt;stroke-linejoin:miter;stroke:rgb(0%,0%,0%);stroke-opacity:1;stroke-miterlimit:10;" d="M 205.514781 -0.00146875 C 205.514781 3.912594 202.342906 7.088375 198.428844 7.088375 C 194.514781 7.088375 191.342906 3.912594 191.342906 -0.00146875 C 191.342906 -3.915531 194.514781 -7.087406 198.428844 -7.087406 C 202.342906 -7.087406 205.514781 -3.915531 205.514781 -0.00146875 Z M 205.514781 -0.00146875 " transform="matrix(1,0,0,-1,7.286,63.979)"/>
</g>
<g clip-path="url(#clip9)" clip-rule="nonzero">
<path style="fill:none;stroke-width:0.3985;stroke-linecap:butt;stroke-linejoin:miter;stroke:rgb(0%,0%,0%);stroke-opacity:1;stroke-miterlimit:10;" d="M 233.862438 -0.00146875 C 233.862438 3.912594 230.686656 7.088375 226.772594 7.088375 C 222.862438 7.088375 219.686656 3.912594 219.686656 -0.00146875 C 219.686656 -3.915531 222.862438 -7.087406 226.772594 -7.087406 C 230.686656 -7.087406 233.862438 -3.915531 233.862438 -0.00146875 Z M 233.862438 -0.00146875 " transform="matrix(1,0,0,-1,7.286,63.979)"/>
</g>
<path style="fill:none;stroke-width:0.3985;stroke-linecap:butt;stroke-linejoin:miter;stroke:rgb(0%,0%,0%);stroke-opacity:1;stroke-miterlimit:10;" d="M 7.085094 28.346187 C 7.085094 32.26025 3.913219 35.432125 -0.00084375 35.432125 C -3.914906 35.432125 -7.086781 32.26025 -7.086781 28.346187 C -7.086781 24.432125 -3.914906 21.26025 -0.00084375 21.26025 C 3.913219 21.26025 7.085094 24.432125 7.085094 28.346187 Z M 7.085094 28.346187 " transform="matrix(1,0,0,-1,7.286,63.979)"/>
<path style="fill:none;stroke-width:0.3985;stroke-linecap:butt;stroke-linejoin:miter;stroke:rgb(0%,0%,0%);stroke-opacity:1;stroke-miterlimit:10;" d="M 35.43275 28.346187 C 35.43275 32.26025 32.260875 35.432125 28.346812 35.432125 C 24.43275 35.432125 21.260875 32.26025 21.260875 28.346187 C 21.260875 24.432125 24.43275 21.26025 28.346812 21.26025 C 32.260875 21.26025 35.43275 24.432125 35.43275 28.346187 Z M 35.43275 28.346187 " transform="matrix(1,0,0,-1,7.286,63.979)"/>
<path style=" stroke:none;fill-rule:nonzero;fill:rgb(100%,0%,0%);fill-opacity:1;" d="M 71.066406 35.632813 C 71.066406 31.71875 67.894531 28.546875 63.980469 28.546875 C 60.066406 28.546875 56.894531 31.71875 56.894531 35.632813 C 56.894531 39.546875 60.066406 42.71875 63.980469 42.71875 C 67.894531 42.71875 71.066406 39.546875 71.066406 35.632813 Z M 71.066406 35.632813 "/>
<path style=" stroke:none;fill-rule:nonzero;fill:rgb(100%,0%,0%);fill-opacity:1;" d="M 99.414063 35.632813 C 99.414063 31.71875 96.242188 28.546875 92.328125 28.546875 C 88.414063 28.546875 85.238281 31.71875 85.238281 35.632813 C 85.238281 39.546875 88.414063 42.71875 92.328125 42.71875 C 96.242188 42.71875 99.414063 39.546875 99.414063 35.632813 Z M 99.414063 35.632813 "/>
<path style=" stroke:none;fill-rule:nonzero;fill:rgb(100%,0%,0%);fill-opacity:1;" d="M 127.761719 35.632813 C 127.761719 31.71875 124.585938 28.546875 120.671875 28.546875 C 116.757813 28.546875 113.585938 31.71875 113.585938 35.632813 C 113.585938 39.546875 116.757813 42.71875 120.671875 42.71875 C 124.585938 42.71875 127.761719 39.546875 127.761719 35.632813 Z M 127.761719 35.632813 "/>
<path style=" stroke:none;fill-rule:nonzero;fill:rgb(100%,0%,0%);fill-opacity:1;" d="M 156.105469 35.632813 C 156.105469 31.71875 152.933594 28.546875 149.019531 28.546875 C 145.105469 28.546875 141.933594 31.71875 141.933594 35.632813 C 141.933594 39.546875 145.105469 42.71875 149.019531 42.71875 C 152.933594 42.71875 156.105469 39.546875 156.105469 35.632813 Z M 156.105469 35.632813 "/>
<path style="fill:none;stroke-width:0.3985;stroke-linecap:butt;stroke-linejoin:miter;stroke:rgb(0%,0%,0%);stroke-opacity:1;stroke-miterlimit:10;" d="M 177.167125 28.346187 C 177.167125 32.26025 173.99525 35.432125 170.081188 35.432125 C 166.167125 35.432125 162.99525 32.26025 162.99525 28.346187 C 162.99525 24.432125 166.167125 21.26025 170.081188 21.26025 C 173.99525 21.26025 177.167125 24.432125 177.167125 28.346187 Z M 177.167125 28.346187 " transform="matrix(1,0,0,-1,7.286,63.979)"/>
<path style="fill:none;stroke-width:0.3985;stroke-linecap:butt;stroke-linejoin:miter;stroke:rgb(0%,0%,0%);stroke-opacity:1;stroke-miterlimit:10;" d="M 205.514781 28.346187 C 205.514781 32.26025 202.342906 35.432125 198.428844 35.432125 C 194.514781 35.432125 191.342906 32.26025 191.342906 28.346187 C 191.342906 24.432125 194.514781 21.26025 198.428844 21.26025 C 202.342906 21.26025 205.514781 24.432125 205.514781 28.346187 Z M 205.514781 28.346187 " transform="matrix(1,0,0,-1,7.286,63.979)"/>
<g clip-path="url(#clip10)" clip-rule="nonzero">
<path style="fill:none;stroke-width:0.3985;stroke-linecap:butt;stroke-linejoin:miter;stroke:rgb(0%,0%,0%);stroke-opacity:1;stroke-miterlimit:10;" d="M 233.862438 28.346187 C 233.862438 32.26025 230.686656 35.432125 226.772594 35.432125 C 222.862438 35.432125 219.686656 32.26025 219.686656 28.346187 C 219.686656 24.432125 222.862438 21.26025 226.772594 21.26025 C 230.686656 21.26025 233.862438 24.432125 233.862438 28.346187 Z M 233.862438 28.346187 " transform="matrix(1,0,0,-1,7.286,63.979)"/>
</g>
<path style="fill:none;stroke-width:0.3985;stroke-linecap:butt;stroke-linejoin:miter;stroke:rgb(0%,0%,0%);stroke-opacity:1;stroke-miterlimit:10;" d="M 7.085094 56.693844 C 7.085094 60.607906 3.913219 63.779781 -0.00084375 63.779781 C -3.914906 63.779781 -7.086781 60.607906 -7.086781 56.693844 C -7.086781 52.779781 -3.914906 49.607906 -0.00084375 49.607906 C 3.913219 49.607906 7.085094 52.779781 7.085094 56.693844 Z M 7.085094 56.693844 " transform="matrix(1,0,0,-1,7.286,63.979)"/>
<path style="fill:none;stroke-width:0.3985;stroke-linecap:butt;stroke-linejoin:miter;stroke:rgb(0%,0%,0%);stroke-opacity:1;stroke-miterlimit:10;" d="M 35.43275 56.693844 C 35.43275 60.607906 32.260875 63.779781 28.346812 63.779781 C 24.43275 63.779781 21.260875 60.607906 21.260875 56.693844 C 21.260875 52.779781 24.43275 49.607906 28.346812 49.607906 C 32.260875 49.607906 35.43275 52.779781 35.43275 56.693844 Z M 35.43275 56.693844 " transform="matrix(1,0,0,-1,7.286,63.979)"/>
<path style="fill:none;stroke-width:0.3985;stroke-linecap:butt;stroke-linejoin:miter;stroke:rgb(0%,0%,0%);stroke-opacity:1;stroke-miterlimit:10;" d="M 63.780406 56.693844 C 63.780406 60.607906 60.608531 63.779781 56.694469 63.779781 C 52.780406 63.779781 49.608531 60.607906 49.608531 56.693844 C 49.608531 52.779781 52.780406 49.607906 56.694469 49.607906 C 60.608531 49.607906 63.780406 52.779781 63.780406 56.693844 Z M 63.780406 56.693844 " transform="matrix(1,0,0,-1,7.286,63.979)"/>
<path style="fill:none;stroke-width:0.3985;stroke-linecap:butt;stroke-linejoin:miter;stroke:rgb(0%,0%,0%);stroke-opacity:1;stroke-miterlimit:10;" d="M 92.128062 56.693844 C 92.128062 60.607906 88.956187 63.779781 85.042125 63.779781 C 81.128062 63.779781 77.952281 60.607906 77.952281 56.693844 C 77.952281 52.779781 81.128062 49.607906 85.042125 49.607906 C 88.956187 49.607906 92.128062 52.779781 92.128062 56.693844 Z M 92.128062 56.693844 " transform="matrix(1,0,0,-1,7.286,63.979)"/>
<path style="fill:none;stroke-width:0.3985;stroke-linecap:butt;stroke-linejoin:miter;stroke:rgb(0%,0%,0%);stroke-opacity:1;stroke-miterlimit:10;" d="M 120.475719 56.693844 C 120.475719 60.607906 117.299938 63.779781 113.385875 63.779781 C 109.471813 63.779781 106.299938 60.607906 106.299938 56.693844 C 106.299938 52.779781 109.471813 49.607906 113.385875 49.607906 C 117.299938 49.607906 120.475719 52.779781 120.475719 56.693844 Z M 120.475719 56.693844 " transform="matrix(1,0,0,-1,7.286,63.979)"/>
<path style="fill:none;stroke-width:0.3985;stroke-linecap:butt;stroke-linejoin:miter;stroke:rgb(0%,0%,0%);stroke-opacity:1;stroke-miterlimit:10;" d="M 148.819469 56.693844 C 148.819469 60.607906 145.647594 63.779781 141.733531 63.779781 C 137.819469 63.779781 134.647594 60.607906 134.647594 56.693844 C 134.647594 52.779781 137.819469 49.607906 141.733531 49.607906 C 145.647594 49.607906 148.819469 52.779781 148.819469 56.693844 Z M 148.819469 56.693844 " transform="matrix(1,0,0,-1,7.286,63.979)"/>
<path style=" stroke:none;fill-rule:nonzero;fill:rgb(100%,0%,0%);fill-opacity:1;" d="M 184.453125 7.285156 C 184.453125 3.371094 181.28125 0.199219 177.367188 0.199219 C 173.453125 0.199219 170.28125 3.371094 170.28125 7.285156 C 170.28125 11.199219 173.453125 14.371094 177.367188 14.371094 C 181.28125 14.371094 184.453125 11.199219 184.453125 7.285156 Z M 184.453125 7.285156 "/>
<path style=" stroke:none;fill-rule:nonzero;fill:rgb(100%,0%,0%);fill-opacity:1;" d="M 212.800781 7.285156 C 212.800781 3.371094 209.628906 0.199219 205.714844 0.199219 C 201.800781 0.199219 198.628906 3.371094 198.628906 7.285156 C 198.628906 11.199219 201.800781 14.371094 205.714844 14.371094 C 209.628906 14.371094 212.800781 11.199219 212.800781 7.285156 Z M 212.800781 7.285156 "/>
<g clip-path="url(#clip11)" clip-rule="nonzero">
<path style=" stroke:none;fill-rule:nonzero;fill:rgb(100%,0%,0%);fill-opacity:1;" d="M 241.148438 7.285156 C 241.148438 3.371094 237.972656 0.199219 234.058594 0.199219 C 230.148438 0.199219 226.972656 3.371094 226.972656 7.285156 C 226.972656 11.199219 230.148438 14.371094 234.058594 14.371094 C 237.972656 14.371094 241.148438 11.199219 241.148438 7.285156 Z M 241.148438 7.285156 "/>
</g>
<path style="fill:none;stroke-width:1.19553;stroke-linecap:butt;stroke-linejoin:miter;stroke:rgb(0%,0%,0%);stroke-opacity:1;stroke-miterlimit:10;" d="M -0.00084375 -0.00146875 L 226.772594 56.693844 " transform="matrix(1,0,0,-1,7.286,63.979)"/>
</g>
</svg>
